<svg width="61" height="44" viewBox="0 0 61 44" fill="none" xmlns="http://www.w3.org/2000/svg">
<path fill-rule="evenodd" clip-rule="evenodd" d="M6 24H14V26H6V24ZM16 26H20V38H16V42H4V38H0V26H4V22H16V26ZM18 36H16V34H4V36H2V28H18V36ZM6 36H14V40H6V36ZM6 30H4V32H6V30Z" fill="#2B2C34"/>
<path d="M5.08594 5.57812C6.5599 5.57812 7.63542 5.89583 8.3125 6.53125C8.98958 7.16146 9.32812 8.03125 9.32812 9.14062C9.32812 9.64062 9.2526 10.1198 9.10156 10.5781C8.95052 11.0312 8.70312 11.4349 8.35938 11.7891C8.02083 12.1432 7.56771 12.4245 7 12.6328C6.43229 12.8359 5.73177 12.9375 4.89844 12.9375H3.85938V17H1.4375V5.57812H5.08594ZM4.96094 7.5625H3.85938V10.9531H4.65625C5.10938 10.9531 5.5026 10.8932 5.83594 10.7734C6.16927 10.6536 6.42708 10.4661 6.60938 10.2109C6.79167 9.95573 6.88281 9.6276 6.88281 9.22656C6.88281 8.66406 6.72656 8.2474 6.41406 7.97656C6.10156 7.70052 5.61719 7.5625 4.96094 7.5625ZM16.1719 8.10156C16.2917 8.10156 16.4297 8.10938 16.5859 8.125C16.7474 8.13542 16.8776 8.15104 16.9766 8.17188L16.7969 10.4062C16.7188 10.3802 16.6068 10.362 16.4609 10.3516C16.3203 10.3359 16.1979 10.3281 16.0938 10.3281C15.7865 10.3281 15.487 10.3672 15.1953 10.4453C14.9089 10.5234 14.651 10.651 14.4219 10.8281C14.1927 11 14.0104 11.2292 13.875 11.5156C13.7448 11.7969 13.6797 12.1432 13.6797 12.5547V17H11.2969V8.26562H13.1016L13.4531 9.73438H13.5703C13.7422 9.4375 13.9557 9.16667 14.2109 8.92188C14.4714 8.67188 14.7656 8.47396 15.0938 8.32812C15.4271 8.17708 15.7865 8.10156 16.1719 8.10156ZM20.9453 8.26562V17H18.5625V8.26562H20.9453ZM19.7578 4.84375C20.112 4.84375 20.4167 4.92708 20.6719 5.09375C20.9271 5.25521 21.0547 5.5599 21.0547 6.00781C21.0547 6.45052 20.9271 6.75781 20.6719 6.92969C20.4167 7.09635 20.112 7.17969 19.7578 7.17969C19.3984 7.17969 19.0911 7.09635 18.8359 6.92969C18.5859 6.75781 18.4609 6.45052 18.4609 6.00781C18.4609 5.5599 18.5859 5.25521 18.8359 5.09375C19.0911 4.92708 19.3984 4.84375 19.7578 4.84375ZM28.4141 8.10156C29.3464 8.10156 30.0964 8.35677 30.6641 8.86719C31.2318 9.3724 31.5156 10.1849 31.5156 11.3047V17H29.1328V11.8984C29.1328 11.2734 29.0182 10.8021 28.7891 10.4844C28.5651 10.1667 28.2109 10.0078 27.7266 10.0078C26.9974 10.0078 26.5 10.2552 26.2344 10.75C25.9688 11.2448 25.8359 11.9583 25.8359 12.8906V17H23.4531V8.26562H25.2734L25.5938 9.38281H25.7266C25.9141 9.08073 26.1458 8.83594 26.4219 8.64844C26.7031 8.46094 27.013 8.32292 27.3516 8.23438C27.6953 8.14583 28.0495 8.10156 28.4141 8.10156ZM37.6484 15.2578C37.9089 15.2578 38.1615 15.2318 38.4062 15.1797C38.6562 15.1276 38.9036 15.0625 39.1484 14.9844V16.7578C38.8932 16.8724 38.5755 16.9661 38.1953 17.0391C37.8203 17.1172 37.4089 17.1562 36.9609 17.1562C36.4401 17.1562 35.9714 17.0729 35.5547 16.9062C35.1432 16.7344 34.8177 16.4401 34.5781 16.0234C34.3438 15.6016 34.2266 15.0156 34.2266 14.2656V10.0547H33.0859V9.04688L34.3984 8.25L35.0859 6.40625H36.6094V8.26562H39.0547V10.0547H36.6094V14.2656C36.6094 14.599 36.7031 14.849 36.8906 15.0156C37.0833 15.1771 37.3359 15.2578 37.6484 15.2578ZM39.6719 8.26562H42.2812L43.9297 13.1797C43.9818 13.3359 44.026 13.4948 44.0625 13.6562C44.099 13.8177 44.1302 13.9844 44.1562 14.1562C44.1823 14.3281 44.2031 14.5078 44.2188 14.6953H44.2656C44.2969 14.4141 44.3385 14.151 44.3906 13.9062C44.4479 13.6615 44.5182 13.4193 44.6016 13.1797L46.2188 8.26562H48.7734L45.0781 18.1172C44.8542 18.7214 44.5625 19.224 44.2031 19.625C43.8438 20.0312 43.4297 20.3359 42.9609 20.5391C42.4974 20.7422 41.987 20.8438 41.4297 20.8438C41.1589 20.8438 40.9245 20.8281 40.7266 20.7969C40.5286 20.7708 40.3594 20.7422 40.2188 20.7109V18.8203C40.3281 18.8464 40.4661 18.8698 40.6328 18.8906C40.7995 18.9115 40.974 18.9219 41.1562 18.9219C41.4896 18.9219 41.776 18.8516 42.0156 18.7109C42.2552 18.5703 42.4557 18.3802 42.6172 18.1406C42.7786 17.9062 42.9062 17.6484 43 17.3672L43.1406 16.9375L39.6719 8.26562Z" fill="#2B2C34"/>
<path d="M27.6484 39.1562C27.1068 39.1562 26.6328 39.1094 26.2266 39.0156C25.8255 38.9271 25.4635 38.7969 25.1406 38.625V37.0547C25.474 37.2526 25.849 37.4193 26.2656 37.5547C26.6875 37.6849 27.1198 37.75 27.5625 37.75C27.9062 37.75 28.2057 37.7031 28.4609 37.6094C28.7161 37.5156 28.9141 37.3828 29.0547 37.2109C29.2005 37.0339 29.2734 36.8203 29.2734 36.5703C29.2734 36.388 29.2318 36.2266 29.1484 36.0859C29.0651 35.9453 28.9219 35.8021 28.7188 35.6562C28.5156 35.5104 28.2344 35.3359 27.875 35.1328C27.4948 34.9193 27.1719 34.7031 26.9062 34.4844C26.6458 34.2604 26.4453 34.013 26.3047 33.7422C26.1693 33.4714 26.1016 33.1536 26.1016 32.7891C26.1016 32.2422 26.2266 31.776 26.4766 31.3906C26.7318 31 27.0911 30.7031 27.5547 30.5C28.0234 30.2917 28.5755 30.1875 29.2109 30.1875C29.7214 30.1875 30.2031 30.2474 30.6562 30.3672C31.1094 30.4818 31.5286 30.6432 31.9141 30.8516L31.3125 32.2109C31.026 32.0495 30.7083 31.9115 30.3594 31.7969C30.0104 31.6771 29.6354 31.6172 29.2344 31.6172C28.8646 31.6172 28.5547 31.7031 28.3047 31.875C28.0599 32.0469 27.9375 32.2917 27.9375 32.6094C27.9375 32.776 27.9766 32.9271 28.0547 33.0625C28.138 33.1927 28.276 33.3255 28.4688 33.4609C28.6615 33.5964 28.9245 33.7526 29.2578 33.9297C29.6172 34.1276 29.9375 34.3359 30.2188 34.5547C30.5 34.7734 30.7214 35.026 30.8828 35.3125C31.0443 35.5938 31.125 35.9349 31.125 36.3359C31.125 36.9453 30.9818 37.4609 30.6953 37.8828C30.4141 38.2995 30.013 38.6172 29.4922 38.8359C28.9714 39.0495 28.3568 39.1562 27.6484 39.1562ZM32.6094 39L35.1875 26.8438H37.0078L36.4375 29.4766C36.3958 29.7057 36.3385 29.9557 36.2656 30.2266C36.1979 30.4974 36.125 30.7656 36.0469 31.0312C35.974 31.2969 35.9036 31.5417 35.8359 31.7656H35.9062C36.1146 31.4948 36.349 31.2396 36.6094 31C36.875 30.7604 37.1719 30.5677 37.5 30.4219C37.8333 30.2708 38.2031 30.1953 38.6094 30.1953C39.0833 30.1953 39.4844 30.2891 39.8125 30.4766C40.1406 30.6589 40.3906 30.9245 40.5625 31.2734C40.7344 31.6172 40.8203 32.0391 40.8203 32.5391C40.8203 32.737 40.8047 32.9505 40.7734 33.1797C40.7422 33.4036 40.7005 33.638 40.6484 33.8828L39.5625 39H37.7344L38.8438 33.75C38.8906 33.5469 38.9245 33.3646 38.9453 33.2031C38.9661 33.0417 38.9766 32.8958 38.9766 32.7656C38.9766 32.4115 38.8932 32.1432 38.7266 31.9609C38.5599 31.7786 38.3021 31.6875 37.9531 31.6875C37.5833 31.6875 37.2188 31.8307 36.8594 32.1172C36.5 32.3984 36.1771 32.8099 35.8906 33.3516C35.6042 33.888 35.3802 34.5391 35.2188 35.3047L34.4375 39H32.6094ZM45.6875 39.1406C45.0312 39.1406 44.4583 39.0052 43.9688 38.7344C43.4792 38.4635 43.099 38.0807 42.8281 37.5859C42.5625 37.0859 42.4297 36.4948 42.4297 35.8125C42.4297 35.2344 42.4896 34.6719 42.6094 34.125C42.7344 33.5781 42.9167 33.0677 43.1562 32.5938C43.3958 32.1198 43.6953 31.7057 44.0547 31.3516C44.4141 30.9922 44.8307 30.7135 45.3047 30.5156C45.7786 30.3125 46.3099 30.2109 46.8984 30.2109C47.5703 30.2109 48.1484 30.3464 48.6328 30.6172C49.1172 30.888 49.4896 31.276 49.75 31.7812C50.0104 32.2865 50.1406 32.8906 50.1406 33.5938C50.1406 34.1562 50.0807 34.7057 49.9609 35.2422C49.8464 35.7786 49.6719 36.2839 49.4375 36.7578C49.2031 37.2266 48.9062 37.6406 48.5469 38C48.1927 38.3542 47.776 38.6328 47.2969 38.8359C46.8229 39.0391 46.2865 39.1406 45.6875 39.1406ZM45.8203 37.6406C46.112 37.6406 46.3828 37.5755 46.6328 37.4453C46.888 37.3099 47.1172 37.1198 47.3203 36.875C47.5234 36.625 47.6953 36.3307 47.8359 35.9922C47.9818 35.6484 48.0938 35.2682 48.1719 34.8516C48.25 34.4349 48.2891 33.9896 48.2891 33.5156C48.2891 33.1979 48.2422 32.9036 48.1484 32.6328C48.0547 32.3568 47.8984 32.1354 47.6797 31.9688C47.4661 31.7969 47.1797 31.7109 46.8203 31.7109C46.4974 31.7109 46.2005 31.7891 45.9297 31.9453C45.6641 32.0964 45.4271 32.3073 45.2188 32.5781C45.0156 32.849 44.8438 33.1615 44.7031 33.5156C44.5625 33.8646 44.4557 34.2396 44.3828 34.6406C44.3099 35.0365 44.2734 35.4375 44.2734 35.8438C44.2734 36.4219 44.4036 36.8672 44.6641 37.1797C44.9297 37.487 45.3151 37.6406 45.8203 37.6406ZM50.4375 42.8359L53.0859 30.3516H54.5156L54.3438 31.8438H54.4062C54.6198 31.5573 54.8594 31.2891 55.125 31.0391C55.3906 30.7891 55.6875 30.5859 56.0156 30.4297C56.349 30.2734 56.7135 30.1953 57.1094 30.1953C57.5521 30.1953 57.9531 30.3047 58.3125 30.5234C58.6771 30.737 58.9661 31.0703 59.1797 31.5234C59.3984 31.9714 59.5078 32.5495 59.5078 33.2578C59.5078 33.8516 59.4453 34.4349 59.3203 35.0078C59.2005 35.5755 59.0234 36.1094 58.7891 36.6094C58.5547 37.1094 58.2682 37.5521 57.9297 37.9375C57.5964 38.3177 57.2161 38.6172 56.7891 38.8359C56.362 39.0495 55.8932 39.1562 55.3828 39.1562C55.0078 39.1562 54.6849 39.0938 54.4141 38.9688C54.1484 38.8385 53.9245 38.6667 53.7422 38.4531C53.5599 38.2396 53.4062 38.0052 53.2812 37.75H53.2109C53.1849 38.0573 53.1484 38.3776 53.1016 38.7109C53.0547 39.0443 52.9974 39.362 52.9297 39.6641L52.2578 42.8359H50.4375ZM55.1406 37.6641C55.4375 37.6641 55.7135 37.5833 55.9688 37.4219C56.224 37.2552 56.4557 37.0286 56.6641 36.7422C56.8724 36.4557 57.0495 36.125 57.1953 35.75C57.3411 35.375 57.4531 34.9792 57.5312 34.5625C57.6094 34.1406 57.6484 33.7161 57.6484 33.2891C57.6484 32.7578 57.5443 32.3594 57.3359 32.0938C57.1328 31.8229 56.8255 31.6875 56.4141 31.6875C56.1641 31.6875 55.9245 31.7526 55.6953 31.8828C55.4661 32.0078 55.2526 32.1797 55.0547 32.3984C54.8568 32.6172 54.6771 32.8724 54.5156 33.1641C54.3542 33.4505 54.2161 33.7578 54.1016 34.0859C53.987 34.4141 53.8984 34.7474 53.8359 35.0859C53.7786 35.4245 53.75 35.7526 53.75 36.0703C53.75 36.5495 53.8672 36.9349 54.1016 37.2266C54.3411 37.5182 54.6875 37.6641 55.1406 37.6641Z" fill="#2B2C34"/>
</svg>
